<?xml version="1.0" standalone="no"?>
<!DOCTYPE svg PUBLIC "-//W3C//DTD SVG 20010904//EN" "http://www.w3.org/TR/2001/REC-SVG-20010904/DTD/svg10.dtd">
<svg version="1.0" viewBox="0 0 300 300" height="300" width="300" xmlns="http://www.w3.org/2000/svg">
  <g fill="#FFFFFF">
    <path fill="#FA4D6D"
      d="M291.531342,1.000001 C292.839233,2.065283 293.534851,3.297127 294.543091,4.166358 C298.430450,7.517698 301.069275,11.227175 301.063690,16.793856 C300.973572,106.592972 300.981262,196.392212 301.065063,286.191345 C301.068573,289.982147 300.010956,292.873383 297.206543,295.350525 C295.473145,296.881592 294.019562,298.729462 292.720184,300.717560 C198.645767,301.000000 104.291542,301.000000 9.748383,300.718079 C6.706300,297.957428 3.853150,295.478729 1.000000,293.000000 C1.000000,198.645767 1.000000,104.291542 1.283298,9.748587 C4.377731,6.706573 7.188865,3.853286 10.000000,1.000000 C103.687561,1.000000 197.375122,1.000000 291.531342,1.000001 M78.500000,101.000000 C135.890884,101.000000 193.281754,101.000000 250.700317,101.000000 C250.700317,84.055496 250.700317,67.669342 250.700317,51.278183 C184.043076,51.278183 117.685898,51.278183 51.299530,51.278183 C51.299530,67.944214 51.299530,84.330360 51.299530,101.000000 C60.231277,101.000000 68.865639,101.000000 78.500000,101.000000 M51.000000,151.500000 C51.000000,184.563751 51.000000,217.627487 51.000000,250.697876 C67.957680,250.697876 84.339836,250.697876 100.713318,250.697876 C100.713318,209.033783 100.713318,167.672455 100.713318,126.301926 C84.042725,126.301926 67.660583,126.301926 51.000000,126.301926 C51.000000,134.567184 51.000000,142.533585 51.000000,151.500000 M126.000000,198.500000 C126.000000,215.911179 126.000000,233.322357 126.000000,250.678650 C142.996719,250.678650 159.379166,250.678650 175.694092,250.678650 C175.694092,208.995117 175.694092,167.633667 175.694092,126.321144 C159.003693,126.321144 142.621231,126.321144 126.000000,126.321144 C126.000000,150.261002 126.000000,173.880493 126.000000,198.500000 M201.000000,141.503418 C201.000000,177.897430 201.000000,214.291443 201.000000,250.700500 C217.952225,250.700500 234.334396,250.700500 250.715759,250.700500 C250.715759,209.038925 250.715759,167.677490 250.715759,126.299545 C234.047623,126.299545 217.665451,126.299545 201.000000,126.299545 C201.000000,131.232513 201.000000,135.868729 201.000000,141.503418 z" />
    <path
      d="M78.000000,101.000000 C68.865639,101.000000 60.231277,101.000000 51.299530,101.000000 C51.299530,84.330360 51.299530,67.944214 51.299530,51.278183 C117.685898,51.278183 184.043076,51.278183 250.700317,51.278183 C250.700317,67.669342 250.700317,84.055496 250.700317,101.000000 C193.281754,101.000000 135.890884,101.000000 78.000000,101.000000 z" />
    <path
      d="M51.000000,151.000000 C51.000000,142.533585 51.000000,134.567184 51.000000,126.301926 C67.660583,126.301926 84.042725,126.301926 100.713318,126.301926 C100.713318,167.672455 100.713318,209.033783 100.713318,250.697876 C84.339836,250.697876 67.957680,250.697876 51.000000,250.697876 C51.000000,217.627487 51.000000,184.563751 51.000000,151.000000 z" />
    <path
      d="M126.000000,198.000000 C126.000000,173.880493 126.000000,150.261002 126.000000,126.321144 C142.621231,126.321144 159.003693,126.321144 175.694092,126.321144 C175.694092,167.633667 175.694092,208.995117 175.694092,250.678650 C159.379166,250.678650 142.996719,250.678650 126.000000,250.678650 C126.000000,233.322357 126.000000,215.911179 126.000000,198.000000 z" />
    <path
      d="M201.000000,141.004181 C201.000000,135.868729 201.000000,131.232513 201.000000,126.299545 C217.665451,126.299545 234.047623,126.299545 250.715759,126.299545 C250.715759,167.677490 250.715759,209.038925 250.715759,250.700500 C234.334396,250.700500 217.952225,250.700500 201.000000,250.700500 C201.000000,214.291443 201.000000,177.897430 201.000000,141.004181 z" />
  </g>
</svg>