<?xml version="1.0" standalone="no"?>
<!DOCTYPE svg PUBLIC "-//W3C//DTD SVG 20010904//EN"
 "http://www.w3.org/TR/2001/REC-SVG-20010904/DTD/svg10.dtd">
<svg version="1.0" xmlns="http://www.w3.org/2000/svg"
 width="700.000000pt" height="700.000000pt" viewBox="0 0 700.000000 700.000000"
 preserveAspectRatio="xMidYMid meet">
<metadata>
Created by potrace 1.14, written by Peter Selinger 2001-2017
</metadata>
<g transform="translate(0.000000,700.000000) scale(0.100000,-0.100000)"
fill="#000000" stroke="none">
<path d="M130 6875 l-105 -105 -3 -3304 -3 -3304 93 -81 93 -81 3318 0 3318 0
62 66 c34 37 70 78 79 93 17 25 18 204 18 3311 l0 3285 -26 40 c-15 22 -59 73
-98 113 l-70 72 -3286 0 -3285 0 -105 -105z m5720 -1650 l0 -575 -2325 0
-2325 0 0 575 0 575 2325 0 2325 0 0 -575z m-3500 -2625 l0 -1450 -580 0 -580
0 0 1450 0 1450 580 0 580 0 0 -1450z m1750 0 l0 -1450 -580 0 -580 0 0 1450
0 1450 580 0 580 0 0 -1450z m1750 0 l0 -1450 -580 0 -580 0 0 1450 0 1450
580 0 580 0 0 -1450z"/>
</g>
</svg>
